<?xml version="1.0" encoding="UTF-8" standalone="no"?>
<svg
   xmlns:dc="http://purl.org/dc/elements/1.1/"
   xmlns:cc="http://creativecommons.org/ns#"
   xmlns:rdf="http://www.w3.org/1999/02/22-rdf-syntax-ns#"
   xmlns:svg="http://www.w3.org/2000/svg"
   xmlns="http://www.w3.org/2000/svg"
   xmlns:sodipodi="http://sodipodi.sourceforge.net/DTD/sodipodi-0.dtd"
   xmlns:inkscape="http://www.inkscape.org/namespaces/inkscape"
   width="210mm"
   height="297mm"
   viewBox="0 0 210 297"
   version="1.1"
   id="svg2903"
   inkscape:version="1.0.1 (3bc2e813f5, 2020-09-07)"
   sodipodi:docname="noMrBerg.svg">
  <defs
     id="defs2897" />
  <sodipodi:namedview
     id="base"
     pagecolor="#ffffff"
     bordercolor="#666666"
     borderopacity="1.0"
     inkscape:pageopacity="0.0"
     inkscape:pageshadow="2"
     inkscape:zoom="1.4"
     inkscape:cx="132.13651"
     inkscape:cy="451.19161"
     inkscape:document-units="mm"
     inkscape:current-layer="layer8"
     inkscape:document-rotation="0"
     showgrid="false"
     inkscape:window-width="3838"
     inkscape:window-height="2138"
     inkscape:window-x="0"
     inkscape:window-y="20"
     inkscape:window-maximized="0"
     inkscape:object-paths="true"
     inkscape:snap-nodes="true"
     inkscape:snap-bbox="true"
     inkscape:snap-bbox-midpoints="true" />
  <metadata
     id="metadata2900">
    <rdf:RDF>
      <cc:Work
         rdf:about="">
        <dc:format>image/svg+xml</dc:format>
        <dc:type
           rdf:resource="http://purl.org/dc/dcmitype/StillImage" />
        <dc:title></dc:title>
      </cc:Work>
    </rdf:RDF>
  </metadata>
  <g
     inkscape:groupmode="layer"
     id="layer8"
     inkscape:label="circles"
     style="display:inline"
     sodipodi:insensitive="true">
    <g
       id="g3084"
       transform="matrix(2.0952094,0,0,2.0952094,-113.84045,-128.12684)"
       style="display:inline">
      <path
         id="path3072"
         style="fill:#000000;fill-opacity:0.567435;stroke:#000000;stroke-width:0.25;stroke-opacity:0.620243"
         d="M 132.52395,121.45453 A 27.91881,27.91881 0 0 1 104.60514,149.37334 27.91881,27.91881 0 0 1 76.686331,121.45453 27.91881,27.91881 0 0 1 104.60514,93.535719 27.91881,27.91881 0 0 1 132.52395,121.45453 Z" />
      <path
         id="path3070"
         style="fill:#ffffff;fill-opacity:1;stroke:#000000;stroke-width:0.281339;stroke-opacity:0.620243"
         d="M 131.28799,121.2718 A 26.684196,26.684196 0 0 1 104.60379,147.95599 26.684196,26.684196 0 0 1 77.919594,121.2718 26.684196,26.684196 0 0 1 104.60379,94.587601 26.684196,26.684196 0 0 1 131.28799,121.2718 Z" />
    </g>
    <path
       style="fill:none;stroke:#000000;stroke-width:0.264583px;stroke-linecap:butt;stroke-linejoin:miter;stroke-opacity:1"
       d="m 104.78107,67.852636 5.78028,2.446978"
       id="path2654" />
  </g>
  <g
     inkscape:groupmode="layer"
     id="layer11"
     inkscape:label="rifling"
     style="display:inline"
     sodipodi:insensitive="true">
    <path
       style="fill:none;stroke:#5c0000;stroke-width:0.554357px;stroke-linecap:butt;stroke-linejoin:miter;stroke-opacity:1"
       d="m 233.29956,17.208584 c 0,0 0.2147,14.335246 0.16972,21.502993 -0.0291,4.634668 -0.0463,9.272727 -0.28422,13.901375 -0.19548,3.802786 -0.54031,7.597879 -0.9388,11.384777 -0.30735,2.920701 -0.71373,5.830409 -1.11953,8.739064 -0.4862,3.484905 -0.92183,6.980343 -1.57571,10.437711 -0.98275,5.196329 -2.12724,10.368395 -3.52431,15.468973 -0.8791,3.209593 -2.00008,6.348313 -3.05202,9.505483 -1.07504,3.2265 -1.93313,6.54323 -3.33082,9.64362 -1.61105,3.57365 -5.7871,10.23757 -5.7871,10.23757"
       id="path3092"
       sodipodi:nodetypes="caaaaaaaac" />
    <path
       id="path3094"
       style="fill:#000000;fill-opacity:0.567435;stroke:#650000;stroke-width:0.554357px;stroke-linecap:butt;stroke-linejoin:miter;stroke-opacity:1"
       d="m 99.943571,184.59303 c 0,0 6.298259,2.1601 9.557239,2.78405 2.53367,0.48509 5.12685,0.62505 7.70427,0.73316 2.92711,0.12299 5.86057,0.004 8.78854,-0.0964 2.28278,-0.0781 4.56984,-0.15086 6.84097,-0.39413 2.23372,-0.23921 4.44773,-0.64317 6.65782,-1.04595 2.70433,-0.49286 5.41873,-0.96675 8.07441,-1.67642 2.70672,-0.72331 5.35186,-1.66689 7.98487,-2.62435 2.57086,-0.93487 5.13504,-1.90289 7.62124,-3.04401 2.75291,-1.26353 5.43017,-2.69402 8.05771,-4.20102 2.48938,-1.42776 4.94562,-2.92481 7.29024,-4.57956 2.89945,-2.04635 5.683,-4.26304 8.3563,-6.5971 2.78986,-2.43585 5.49008,-4.98719 7.998,-7.71243 2.71263,-2.94766 5.23991,-6.07286 7.596,-9.31262 2.90391,-3.99309 5.59041,-8.15365 8.03452,-12.44363 2.21304,-3.88442 4.16867,-7.91742 5.98285,-12.00337 1.74929,-3.93984 3.33444,-7.95824 4.71648,-12.0414 1.48511,-4.38769 2.68139,-8.87078 3.83262,-13.357654 1.08817,-4.24106 2.09976,-8.506362 2.90375,-12.810362 0.8775,-4.697522 1.49644,-9.441359 2.0919,-14.182891 0.55904,-4.451488 1.08475,-8.911355 1.38954,-13.387443 0.26993,-3.965297 0.24877,-7.945085 0.3881,-11.917124 0.15504,-4.424898 0.40165,-8.846936 0.49845,-13.273491 0.10371,-4.75337 0.089,-14.263247 0.089,-14.263247 l -7.90931,-0.09196 c 0,0 -0.5635,25.425325 -1.06231,38.130704 -0.22844,5.818836 -0.30586,11.653033 -0.88407,17.447575 -0.63965,6.410086 -1.60774,12.793703 -2.85527,19.113672 -1.10587,5.602296 -2.51507,11.147181 -4.09699,16.634101 -1.14349,3.96615 -2.39577,7.90872 -3.8941,11.75488 -1.49769,3.84458 -3.21459,7.60741 -5.08178,11.28674 -1.8503,3.64607 -3.79878,7.25751 -6.05398,10.66801 -1.85324,2.80264 -4.02658,5.38119 -6.11875,8.01028 -2.16177,2.71657 -4.25036,5.5064 -6.64579,8.01935 -2.18667,2.29394 -4.61126,4.35251 -7.02172,6.41002 -2.85927,2.44061 -5.69235,4.94181 -8.81693,7.03201 -3.21297,2.14933 -6.65613,3.95339 -10.14404,5.61989 -3.67626,1.7565 -7.47632,3.26168 -11.32578,4.5965 -3.15761,1.09491 -6.3751,2.03239 -9.63007,2.79033 -2.81231,0.65486 -5.67341,1.08811 -8.52957,1.51274 -1.83346,0.27259 -3.67134,0.54388 -5.52107,0.66383 -4.10797,0.26641 -8.24756,0.47236 -12.34921,0.12173 -3.82323,-0.32683 -11.32469,-2.06564 -11.32469,-2.06564 z"
       sodipodi:nodetypes="cscssssssssssssssssscccccssssssssssssssssscc" />
    <path
       id="path3098"
       style="fill:#000000;fill-opacity:0.567435;stroke:#6f0000;stroke-width:0.554357px;stroke-linecap:butt;stroke-linejoin:miter;stroke-opacity:1"
       d="m 48.721266,141.08668 c 0,0 0.965883,6.00133 1.830002,8.90634 0.859509,2.8895 2.048968,5.6787 3.317546,8.41343 1.58547,3.41788 3.3711,6.75062 5.350138,9.95669 1.600459,2.59278 3.36872,5.08679 5.258816,7.47665 1.990355,2.51664 4.126918,4.92381 6.385528,7.20277 2.903235,2.92939 5.93185,5.75489 9.184501,8.2907 2.911275,2.26967 6.014659,4.29935 9.201697,6.16207 3.339318,1.95173 6.808678,3.69272 10.357083,5.23193 2.834123,1.22936 5.741463,2.30707 8.703413,3.18484 3.8681,1.14629 7.81754,2.04134 11.79693,2.70504 3.97028,0.66217 7.98715,1.09733 12.0087,1.26704 4.6733,0.19716 9.36585,0.0698 14.02937,-0.29121 2.7683,-0.21426 5.51771,-0.64719 8.25536,-1.11059 4.12875,-0.69886 8.23507,-1.54279 12.30793,-2.51585 3.70833,-0.88595 7.42163,-1.79551 11.03157,-3.02225 3.54147,-1.20349 6.96431,-2.73678 10.38805,-4.2429 4.3269,-1.90344 8.62407,-3.88482 12.82385,-6.05438 3.67146,-1.89665 7.27897,-3.92331 10.80405,-6.07986 5.74184,-3.51273 11.36978,-7.22278 16.82992,-11.15915 5.4272,-3.91264 15.80986,-12.36597 15.80986,-12.36597 l 0.0438,-12.76322 c 0,0 -8.51891,8.4283 -13.04517,12.34774 -4.37402,3.78762 -8.92092,7.38406 -13.61203,10.77103 -5.79577,4.18453 -11.76049,8.15336 -17.92345,11.77539 -5.10533,3.00047 -10.35628,5.77291 -15.74619,8.22569 -4.28009,1.94775 -8.67069,3.67096 -13.1387,5.1372 -6.1639,2.02278 -12.42359,3.83906 -18.8005,5.03079 -3.87008,0.72325 -7.81367,1.01716 -11.74239,1.27359 -3.88402,0.25352 -7.78729,0.46975 -11.67397,0.26065 -4.84881,-0.26088 -9.67188,-0.99294 -14.44491,-1.88588 -2.83941,-0.5312 -5.67425,-1.15542 -8.41747,-2.06043 -3.75861,-1.24001 -7.395687,-2.85059 -10.948923,-4.59395 -4.356435,-2.13743 -8.641071,-4.46462 -12.669464,-7.17002 -2.133314,-1.4327 -4.061995,-3.14964 -6.053173,-4.7741 -1.119407,-0.91324 -2.25864,-1.80668 -3.312534,-2.7948 -1.453994,-1.36325 -2.800145,-2.83865 -4.141904,-4.31251 -1.754334,-1.92705 -3.507978,-3.86168 -5.106759,-5.91961 -2.059834,-2.65141 -4.102692,-5.34266 -5.763295,-8.26075 -2.621704,-4.60715 -6.56525,-14.48428 -6.56525,-14.48428 z"
       sodipodi:nodetypes="csssssssssssssssssssccssssssssssssssssscc" />
    <path
       style="fill:none;stroke:#6b0000;stroke-width:0.554357px;stroke-linecap:butt;stroke-linejoin:miter;stroke-opacity:1"
       d="m 244.46808,165.13616 c 0,0 -6.64217,5.69935 -10.10987,8.36525 -3.45207,2.65388 -7.00399,5.18194 -10.6348,7.58552 -3.12599,2.0694 -6.36076,3.97101 -9.58841,5.87796 -4.1459,2.44947 -8.27178,4.94574 -12.5558,7.14471 -5.0175,2.57545 -10.12742,4.99489 -15.3715,7.07043 -5.09322,2.01582 -10.28335,3.83321 -15.58511,5.21016 -5.08497,1.32063 -10.26621,2.35229 -15.49039,2.9081 -7.52211,0.80029 -22.68579,0.5993 -22.68579,0.5993"
       id="path3100"
       sodipodi:nodetypes="caaaaaaac" />
    <path
       id="path3108"
       style="fill:#000000;fill-opacity:0.567435;stroke:#680000;stroke-width:0.554357px;stroke-linecap:butt;stroke-linejoin:miter;stroke-opacity:1"
       d="m 104.78107,67.852636 c 0,0 -9.786962,-2.34148 -14.736633,-3.230312 -2.736995,-0.491492 -5.493993,-0.886211 -8.261201,-1.160564 -3.064977,-0.303874 -6.145391,-0.459475 -9.224438,-0.536286 -3.593003,-0.08963 -7.195108,-0.139499 -10.781998,0.08835 -2.865787,0.182032 -5.72707,0.51618 -8.55409,1.019994 -3.28172,0.584847 -6.531082,1.373806 -9.727638,2.319194 -3.037541,0.898357 -6.024404,1.977448 -8.955428,3.178609 -2.905333,1.190632 -5.777018,2.484344 -8.5351,3.98486 -3.428563,1.865285 -6.730166,3.9714 -9.922582,6.21702 -2.551255,1.794625 -4.992381,3.748638 -7.3560459,5.783987 -2.2960603,1.977123 -4.4971574,4.067472 -6.6170274,6.232452 -2.25026541,2.29813 -4.4124733,4.686648 -6.4665077,7.16174 -1.9301488,2.3258 -3.7622439,4.73607 -5.49432,7.21292 -1.696665,2.42621 -3.245536,4.95366 -4.789567,7.47975 -1.293299,2.11589 -2.552434,4.25386 -3.746303,6.42741 -1.93896,3.53005 -3.793048,7.10848 -5.545626,10.73466 -1.786901,3.69721 -3.534758,7.41922 -5.063373,11.23047 -1.634823,4.07606 -3.023146,8.24874 -4.385051,12.42392 -1.012064,3.10267 -1.93242,6.23539 -2.811995,9.3782 -1.058955,3.78374 -2.046473,7.58812 -2.967177,11.40785 -0.758313,3.14602 -1.463362,6.30553 -2.105311,9.47734 -0.974534,4.81509 -1.951949,9.63508 -2.650121,14.49793 -0.697388,4.85739 -1.534129,14.64145 -1.534129,14.64145 l 74.083885,19.12562 c 0,0 -4.571613,-6.02796 -6.646199,-9.18758 -1.920143,-2.92439 -3.725264,-5.93055 -5.357637,-9.0248 -2.202828,-4.17558 -4.406574,-8.38865 -5.97032,-12.84315 -2.0343378,-5.79504 -3.4048457,-11.83312 -4.3809974,-17.89678 -0.6291453,-3.90811 -0.8236729,-7.88136 -0.9390373,-11.83812 -0.088376,-3.03101 -0.00608,-6.06896 0.1897631,-9.09493 0.2036963,-3.14597 0.4893069,-6.29518 1.0237152,-9.40212 0.6899985,-4.01151 1.6754279,-7.97447 2.8103043,-11.88349 1.1400241,-3.92675 2.4001521,-7.83394 4.0084311,-11.59325 1.740616,-4.06865 3.837937,-7.98654 6.078846,-11.80257 1.76196,-3.00042 3.683263,-5.91504 5.775945,-8.69493 2.230183,-2.96252 4.669262,-5.77004 7.20241,-8.47807 2.014154,-2.153203 4.108067,-4.241875 6.34434,-6.163391 2.075295,-1.783191 4.295716,-3.39556 6.540896,-4.959466 2.686882,-1.871567 5.369465,-3.785771 8.280477,-5.285145 3.310314,-1.705039 6.804174,-3.073693 10.360759,-4.176446 2.245502,-0.696236 6.885752,-1.526334 6.885752,-1.526334 11.866506,-8.673061 22.981608,-10.65571 33.940329,-11.245997 z"
       sodipodi:nodetypes="cssssssssssssssssssssssccssssscsssssssssscc" />
    <path
       id="path3112"
       style="fill:#000000;fill-opacity:0.567435;stroke:#690000;stroke-width:0.554357px;stroke-linecap:butt;stroke-linejoin:miter;stroke-opacity:1"
       d="m -46.947341,213.57252 c 0,0 1.717829,-15.43675 3.042613,-23.08409 1.247465,-7.20101 2.837291,-14.34479 4.613618,-21.43389 1.192367,-4.7586 2.586251,-9.46674 4.053279,-14.14796 1.396903,-4.45746 2.831726,-8.90919 4.519339,-13.2649 1.495582,-3.86007 3.185674,-7.64544 4.96076,-11.38522 1.619467,-3.41193 3.319648,-6.79037 5.185889,-10.07381 2.142997,-3.77037 4.503977,-7.41495 6.892009,-11.03509 1.594752,-2.41756 3.202636,-4.83181 4.963002,-7.13157 2.1861855,-2.856065 4.5122786,-5.608478 6.9401171,-8.262187 2.40914303,-2.633259 4.9078101,-5.193333 7.5552392,-7.5869 2.8477521,-2.574698 5.8126217,-5.033816 8.9361307,-7.265943 2.741236,-1.958947 5.633339,-3.70821 8.573134,-5.354255 2.660172,-1.48948 5.388912,-2.866553 8.185078,-4.081673 2.851086,-1.238988 5.770083,-2.333716 8.736977,-3.261785 3.757618,-1.175414 7.576573,-2.190034 11.447156,-2.911054 3.759884,-0.700399 7.576369,-1.106248 11.392118,-1.365765 2.944872,-0.200281 5.902608,-0.198311 8.853821,-0.146078 2.694228,0.04769 5.38996,0.170152 8.073068,0.419283 3.683881,0.342054 7.35544,0.842691 11.000742,1.47495 3.213414,0.557349 6.420996,1.188348 9.568841,2.041423 2.2156,0.600433 6.53889,2.160413 6.53889,2.160413 l 2.94187,0.162546 c 0,0 -4.56247,-1.941989 -6.93039,-2.660373 -3.244641,-0.984367 -6.592157,-1.601298 -9.921076,-2.245537 -3.895472,-0.753883 -7.812297,-1.419957 -11.751703,-1.893357 -3.654766,-0.439193 -7.329453,-0.750076 -11.008343,-0.876489 -2.814931,-0.09673 -5.6356,-0.037 -8.449289,0.09089 -2.961748,0.134617 -5.932631,0.28033 -8.865905,0.711577 -4.59866,0.676088 -9.173609,1.61954 -13.632512,2.932147 -4.872149,1.434256 -9.663064,3.209892 -14.255995,5.377822 -3.91923,1.849932 -7.618934,4.147257 -11.274739,6.474851 -2.859387,1.820527 -5.6739275,3.728689 -8.3199004,5.847476 -3.4365164,2.751827 -6.6642682,5.76677 -9.7730791,8.884044 -3.2440085,3.252854 -6.3726825,6.636073 -9.2426145,10.223284 -2.652924,3.31596 -5.039263,6.8432 -7.344882,10.4094 -3.060346,4.73356 -6.002253,9.55767 -8.597807,14.56122 -3.766541,7.26091 -7.192596,14.71949 -10.088546,22.3694 -3.420061,9.03439 -6.162813,18.32891 -8.566819,27.68509 -2.311515,8.9962 -5.615496,27.29356 -5.615496,27.29356 z"
       sodipodi:nodetypes="cssssssssssssssssssssccsssssssssssssssscc" />
    <path
       style="fill:none;stroke:#5a0000;stroke-width:0.554357px;stroke-linecap:butt;stroke-linejoin:miter;stroke-opacity:1"
       d="m -54.403644,70.211362 c 0,0 4.90639,-2.841431 7.435582,-4.118532 3.869747,-1.954007 7.860641,-3.65947 11.824827,-5.413984 3.325816,-1.471976 6.666762,-2.911159 10.032668,-4.289002 2.956409,-1.210214 5.923263,-2.3982 8.924251,-3.493217 3.940196,-1.43772 7.9176891,-2.775271 11.9175549,-4.037519 4.29481677,-1.355326 8.6094689,-2.656776 12.9668759,-3.794923 4.4217232,-1.154946 8.8786552,-2.183346 13.3607422,-3.075784 4.852272,-0.966145 9.735776,-1.785852 14.636533,-2.46449 3.22256,-0.446248 6.457438,-0.82651 9.702659,-1.055784 4.641281,-0.327907 9.299795,-0.575976 13.951099,-0.456065 5.049741,0.130176 10.093185,0.609105 15.100536,1.274895 4.770128,0.634248 9.524728,1.45839 14.202706,2.586616 4.095271,0.98769 8.154025,2.17401 12.09884,3.652262 2.90778,1.089637 5.73742,2.396673 8.49115,3.83173 2.9092,1.516072 5.72952,3.210694 8.45677,5.03387 2.6179,1.750082 5.14862,3.638652 7.56821,5.654048 3.07129,2.558222 6.04267,5.252636 8.79529,8.150966 2.82347,2.97291 5.46087,6.133636 7.88467,9.440482 2.50294,3.414805 6.84545,10.69908 6.84545,10.69908"
       id="path3114"
       sodipodi:nodetypes="caaaaaaaaaaaaaaaaaac" />
    <path
       id="path3118"
       style="fill:#000000;fill-opacity:0.567435;stroke:#510000;stroke-width:0.554357px;stroke-linecap:butt;stroke-linejoin:miter;stroke-opacity:1"
       d="m -54.282832,67.132502 c 0,0 8.158215,-4.160286 12.325323,-6.054277 4.018043,-1.826241 8.126127,-3.448269 12.21299,-5.114813 4.811074,-1.961864 9.578809,-4.0479 14.487981,-5.749485 5.767284,-1.999018 11.6607267,-3.621963 17.5495683,-5.227952 4.851514,-1.323093 9.7286777,-2.562996 14.6430077,-3.629361 3.830548,-0.831195 7.687707,-1.546579 11.559723,-2.156067 5.304046,-0.834901 10.631172,-1.547379 15.976577,-2.05394 3.124274,-0.296074 6.260184,-0.487646 9.397241,-0.574974 4.014804,-0.111758 8.03897,-0.16152 12.048904,0.06562 4.036724,0.228648 8.067509,0.661259 12.059283,1.304037 4.977893,0.801569 9.920287,1.865068 14.788698,3.17674 3.260343,0.878419 6.487217,1.906886 9.632146,3.136061 2.86197,1.118587 5.65795,2.416183 8.37763,3.846388 4.19323,2.205105 8.34028,4.542741 12.2064,7.281148 2.48412,1.759528 4.79987,3.759124 7.01583,5.846298 2.07732,1.956584 3.9615,4.110399 5.86403,6.237332 2.16194,2.416956 4.34347,4.826472 6.30409,7.409442 1.70116,2.24118 3.27806,4.581867 4.72128,6.997232 1.56527,2.61962 4.25684,8.105025 4.25684,8.105025 l 1.86465,2.48144 c 0,0 -2.77806,-6.402373 -4.4528,-9.458194 -1.56357,-2.852959 -3.31764,-5.60645 -5.20658,-8.255228 -2.33029,-3.267672 -4.90027,-6.363748 -7.53613,-9.390335 -1.77462,-2.037696 -3.59155,-4.04869 -5.56536,-5.8941 -2.61463,-2.444527 -5.42163,-4.683514 -8.28519,-6.831081 -1.93216,-1.449057 -3.92992,-2.815879 -5.99035,-4.075907 -2.38718,-1.459845 -4.85114,-2.799218 -7.36584,-4.026454 -2.81252,-1.37259 -5.68998,-2.620748 -8.61889,-3.723386 C 96.73526,39.57908 93.408941,38.548608 90.065153,37.59962 86.528716,36.595956 82.970751,35.632996 79.354895,34.970191 75.164336,34.202039 70.91567,33.752104 66.668507,33.416772 62.60745,33.096133 58.528922,32.982451 54.455229,32.980075 c -4.887637,-0.0029 -9.778725,0.161583 -14.654152,0.50685 -4.966335,0.351717 -9.92249,0.888124 -14.851169,1.592619 -5.338403,0.763061 -10.653465,1.713417 -15.9248777,2.850518 -4.5787197,0.98768 -9.12522776,2.138377 -13.6229132,3.446439 -4.4947417,1.307206 -8.9174141,2.853904 -13.3377131,4.394183 -6.152847,2.143996 -12.309303,4.294179 -18.346251,6.74561 -6.202664,2.518722 -18.345381,8.173135 -18.345381,8.173135 z"
       sodipodi:nodetypes="cssssssssssssssssssccssssssssssscsssssscc" />
    <path
       id="path2641"
       style="fill:#000000;fill-opacity:0.567435;stroke:#000000;stroke-width:0.264583px;stroke-linecap:butt;stroke-linejoin:miter;stroke-opacity:1"
       d="m 33.289613,225.52749 c -3.168099,-3.90478 -6.19588,-7.95662 -8.750106,-12.2879 -2.593021,-4.39707 -4.668489,-9.09253 -6.61766,-13.81044 -1.933307,-4.67953 -3.82782,-9.41533 -5.018454,-14.33649 -1.296361,-5.35817 -2.035498,-10.87343 -2.275737,-16.38094 -0.23159,-5.30922 0.09053,-10.6569 0.810454,-15.92219 0.66366,-4.85384 1.826832,-9.64324 3.220446,-14.33986 1.106688,-3.72964 2.509407,-7.37468 4.067591,-10.93936 1.380704,-3.15868 2.959019,-6.23442 4.66691,-9.22885 1.827165,-3.20356 3.777937,-6.34794 5.95637,-9.32381 2.255283,-3.08084 4.712515,-6.02302 7.338004,-8.79515 2.094744,-2.211741 4.338451,-4.289246 6.688976,-6.226979 2.381577,-1.963316 4.861242,-3.825769 7.486226,-5.449347 2.697135,-1.668205 5.54947,-3.088087 8.444961,-4.381753 2.225395,-0.994282 4.528892,-1.810429 6.839007,-2.587814 0.826042,-0.277978 2.50737,-0.741375 2.50737,-0.741375 -7.929049,7.074397 -14.625167,14.839934 -17.902299,24.521978 0,0 -3.138089,4.71232 -4.557799,7.15927 -1.352089,2.33042 -2.626385,4.71047 -3.76494,7.15233 -0.801055,1.71801 -1.52825,3.47386 -2.151833,5.26394 -0.861478,2.47302 -1.582819,4.99754 -2.188898,7.54521 -0.706476,2.96969 -1.357564,5.96659 -1.682313,9.00184 -0.305197,2.85241 -0.427201,5.73974 -0.244561,8.60261 0.152447,2.38965 0.661964,4.74521 1.114963,7.0965 0.435485,2.26037 0.878762,4.52695 1.539499,6.73203 1.314795,4.38785 2.89056,8.71326 4.807993,12.87324 1.270312,2.75602 2.811079,5.38571 4.415429,7.96163 2.238658,3.59435 4.656662,7.0843 7.253563,10.42901 2.605826,3.35619 5.374369,6.59674 8.334938,9.6446 2.579169,2.65522 5.368823,5.10293 8.187648,7.50219 2.800738,2.38387 5.718797,4.62882 8.658078,6.83962 3.117519,2.34486 6.246111,4.68473 9.516749,6.8108 3.758511,2.44322 11.592152,6.81787 11.592152,6.81787 54.32842,26.21975 86.37476,19.02036 131.75112,19.53354 l -66.29807,63.85255 C 124.09852,293.97986 81.553782,268.86524 40.39311,233.23807 c 0,0 -4.901696,-4.9968 -7.103497,-7.71058 z"
       sodipodi:nodetypes="sssssssssssssssccsssssssssssssssccccs" />
    <path
       id="path2645"
       style="fill:#000000;fill-opacity:0.567435;stroke:#000000;stroke-width:0.264583px;stroke-linecap:butt;stroke-linejoin:miter;stroke-opacity:1"
       d="m 137.95052,27.846747 c 3.3814,4.041374 6.62658,8.201576 9.70843,12.475778 2.35564,3.267056 4.61472,6.609433 6.70364,10.053146 2.23108,3.678077 4.34668,7.435584 6.21431,11.310877 1.90731,3.957601 3.57317,8.034508 5.08126,12.160777 1.4396,3.938883 2.84559,7.91174 3.77818,12.000436 0.87905,3.853865 1.35313,7.798684 1.69585,11.736651 0.30826,3.537618 0.49057,7.101188 0.32086,10.648108 -0.18019,3.76632 -0.71105,7.51893 -1.41861,11.22257 -0.63505,3.32407 -1.43601,6.62976 -2.5295,9.83242 -0.67893,1.98848 -1.55991,3.90687 -2.49093,5.79053 -0.85485,1.72949 -2.83484,5.04589 -2.83484,5.04589 l 0.57991,-2.66274 c 0,0 1.76065,-3.48387 2.43738,-5.31012 0.84791,-2.28818 1.47201,-4.65861 2.01905,-7.03674 0.79215,-3.44377 1.497,-6.9246 1.82239,-10.4433 0.33869,-3.66249 0.36226,-7.36292 0.12864,-11.0336 -0.19393,-3.04721 -0.70187,-6.071457 -1.26707,-9.072049 -0.52561,-2.790378 -1.18281,-5.559365 -1.97176,-8.286993 -1.04118,-3.599632 -2.22924,-7.164283 -3.63775,-10.636663 -1.74598,-4.304363 -3.68371,-8.546261 -5.95025,-12.600741 -1.9454,-3.480012 -4.26878,-6.73743 -6.5378,-10.015626 -2.13213,-3.08039 -4.31974,-6.126688 -6.64469,-9.064255 -2.5928,-3.275982 -5.31012,-6.45683 -8.13601,-9.534006 -3.03424,-3.304063 -6.21359,-6.475814 -9.45752,-9.574275 -2.83518,-2.708031 -7.46814,-5.372274 -10.56024,-7.782773 C 108.19132,11.759537 71.902956,-6.4045805 45.171046,-4.8050421 l 9.309596,-8.5705979 c 24.352011,1.543084 55.620038,16.5405479 71.926508,30.497169 3.68277,3.152064 8.4327,7.007412 11.54337,10.725218 z"
       sodipodi:nodetypes="sssssscssssccsssssssssssssccss" />
    <path
       id="path2648"
       style="fill:#000000;fill-opacity:0.567435;stroke:#000000;stroke-width:0.264583px;stroke-linecap:butt;stroke-linejoin:miter;stroke-opacity:1"
       d="m 186.76368,36.40858 c 2.54101,6.129966 4.50877,12.518333 5.96781,18.991698 1.38736,6.155332 2.22499,12.44959 2.62107,18.746891 0.36142,5.746231 0.4261,11.551078 -0.22947,17.27123 -0.81914,7.147451 -2.34928,14.254041 -4.60316,21.086101 -2.48571,7.53484 -5.87044,14.79405 -9.75749,21.71094 -2.95957,5.26643 -6.37658,10.31134 -10.25691,14.94142 -3.79753,4.53123 -8.01099,8.7651 -12.6423,12.43989 -4.45731,3.53673 -14.42479,9.12746 -14.42479,9.12746 l 2.1206,-1.91295 c 0,0 7.51971,-4.53007 10.79335,-7.41829 5.5358,-4.88408 10.5868,-10.43029 14.72103,-16.54646 6.07765,-8.99123 10.94914,-18.89487 14.50433,-29.1487 2.55423,-7.36684 4.22187,-15.12062 4.77943,-22.897725 0.6038,-8.422302 0.0254,-16.993274 -1.58572,-25.282069 -1.84617,-9.49838 -5.15183,-18.739251 -9.1674,-27.542818 C 175.90315,31.861483 170.71572,24.50665 165.97378,16.953961 157.2502,3.0595455 136.1278,-10.618308 129.7428,-13.003382 l 9.56048,-7.081831 c 1.80482,-1.37602 27.68975,21.9341443 37.40294,37.244128 3.87835,6.113082 7.28523,12.561909 10.05746,19.249665 z"
       sodipodi:nodetypes="ssssssssccsssscssccss" />
  </g>
  <g
     inkscape:groupmode="layer"
     id="layer7"
     inkscape:label="tree"
     style="display:inline"
     sodipodi:insensitive="true">
    <path
       style="display:inline;fill:#000000;fill-opacity:0.205388;stroke:#bf00cf;stroke-width:0.168309px;stroke-linecap:butt;stroke-linejoin:miter;stroke-opacity:1"
       d="m 105.32639,181.87194 c -2.02383,-3.27144 -1.68218,-6.48536 1.78089,-9.57827 0.092,-1.74143 1.29385,-4.40981 6.2462,-10.21033 l 4.71294,-6.71307 c 1.45028,-2.05989 7.91937,-5.38308 12.52937,-8.30808 5.77321,0.26136 9.79347,1.27961 12.31478,4.88069 l 0.84873,-0.68061 c -1.15953,-1.92593 -2.20875,-3.94446 -5.34689,-4.21059 -2.58023,-0.36815 -3.63047,-0.98408 -3.98119,-1.71334 2.08475,-0.59638 4.16919,-1.19178 5.75246,-0.0572 l 5.12444,0.63575 1.70819,-0.99927 -8.66474,-1.53639 -7.59558,0.80824 -9.95608,5.46898 1.93074,-9.07726 c 0.93059,-2.59351 3.22078,-3.50152 5.6557,-4.23002 2.39265,-1.09485 3.67812,-1.00101 5.54979,-1.25407 3.04321,-0.30089 6.14913,-0.44697 9.48676,0.0744 l -2.20383,-1.80776 -10.71492,0.84185 7.86391,-3.74158 -1.77337,-0.88408 c -2.30437,2.19708 -6.94516,3.24659 -10.5306,4.66346 l -0.33729,-5.29365 5.36813,-2.56008 0.90415,-3.30904 -1.1962,-0.18878 c -0.22932,2.91282 -3.17453,3.3512 -5.00541,4.65712 l -0.28968,-6.8256 -1.68593,0.10455 c 0.16133,4.5561 0.13723,9.05906 -0.21018,13.46949 l -3.87305,5.65988 -5.91365,13.69047 -5.25889,7.19902 -5.06427,9.55488 c -0.79354,0.52594 -1.16567,0.19486 -1.51173,-0.18898 0.82597,-3.49385 0.69691,-6.9877 2.56858,-10.48156 l -1.11009,-1.23494 c 0,0 3.03269,-4.67336 4.28852,-7.15384 1.72511,-3.40738 2.44419,-7.30476 4.43325,-10.56509 0.74433,-1.22002 2.05941,-2.0363 2.7565,-3.28393 0.65547,-1.17309 1.01063,-2.50742 1.27104,-3.82573 0.31124,-1.57553 -0.16468,-3.27965 0.33366,-4.80639 0.92961,-2.84843 2.88525,-5.29275 4.78693,-7.60818 1.63388,-1.9894 5.61275,-5.30497 5.61275,-5.30497 l -1.43748,-0.35212 c 0,0 -3.75789,2.85472 -5.33564,4.5915 -1.17401,1.29235 -2.03001,2.84147 -3.02075,4.27911 -0.76775,1.11405 -1.7816,2.10439 -2.26536,3.36793 -1.00813,2.63307 0.61901,6.20037 -1.17359,8.3766 -0.67686,0.82174 -2.23565,0.32032 -3.01947,1.04076 -1.81548,6.53889 -7.38907,17.84221 -7.7701,17.57882 0.0976,-7.33044 -0.27519,-14.59376 0.38893,-22.00508 l 2.25587,-6.05555 2.12802,-6.31635 -6.08394,11.26004 -0.28078,3.78908 -0.64522,20.77867 -1.139732,-13.15504 c -1.24357,-2.10328 -1.788471,-4.38257 -1.913785,-6.76759 l 0.299887,-7.63363 0.750776,-8.32938 -0.01676,-8.39548 -1.662423,1.05955 c 0.467441,7.05132 -0.137656,10.29869 -0.629066,13.94846 l -2.24002,-4.06169 c 0.129086,-2.5527 -0.503787,-4.93386 -1.483111,-7.23673 l 1.921481,-8.17142 -1.731529,0.48544 -1.221222,6.7564 -4.568017,-4.47059 -2.123095,0.57964 c 2.34561,0.84292 4.018842,2.75367 5.741496,4.58593 1.484791,2.52052 2.343278,5.04103 1.765501,7.56155 2.981778,4.43503 3.677599,8.9988 2.549727,13.66523 l 2.402472,12.76152 -2.249588,-5.36305 -4.468072,-6.19272 3.109196,-0.73127 -0.421855,-4.51803 -4.613863,2.14692 -6.359468,-7.89722 -3.483841,1.92508 c 5.031371,6.7995 9.885707,13.65027 14.135634,20.67596 l 2.344087,5.80478 1.348973,6.68431 -6.122382,-8.63547 -1.392849,-4.46697 -5.277629,-5.4743 c -1.063637,-1.46757 -1.908132,-3.00799 -2.095128,-4.76708 l -5.189777,-5.16557 -3.675483,-1.43696 -1.855057,3.02236 4.172046,0.0974 c 1.993022,1.05305 3.055782,2.69383 4.47653,4.10841 0.617746,2.26125 1.397842,4.46443 3.560536,6.17303 l 3.871442,5.52815 1.531743,3.71009 c 3.396934,3.51616 4.955107,7.64739 7.225789,11.73363 l 1.32126,3.88863 c -0.845438,3.33972 -2.610016,10.53063 -2.610016,10.53063 0.117152,0.11193 6.719152,1.1897 10.669862,1.02758 z"
       id="path3202"
       sodipodi:nodetypes="cccccccccccccccccccccccccccccccccccccccaaaaaaccaaaacccccccccccccccccccccccccccccccccccccccccccccccccccc" />
    <path
       style="fill:none;stroke:#000000;stroke-width:0.264583px;stroke-linecap:butt;stroke-linejoin:miter;stroke-opacity:1"
       d="m 103.50182,170.40165 -7.687888,5.74375"
       id="path2617" />
    <path
       style="fill:none;stroke:#000000;stroke-width:0.264583px;stroke-linecap:butt;stroke-linejoin:miter;stroke-opacity:1"
       d="m 120.79991,149.65845 -6.97493,3.9893"
       id="path2619" />
    <path
       style="fill:none;stroke:#000000;stroke-width:0.264583px;stroke-linecap:butt;stroke-linejoin:miter;stroke-opacity:1"
       d="m 126.06409,134.24339 -2.45241,0.054"
       id="path2621" />
    <path
       style="fill:none;stroke:#000000;stroke-width:0.264583px;stroke-linecap:butt;stroke-linejoin:miter;stroke-opacity:1"
       d="m 102.90884,154.83064 0.53974,3.66553"
       id="path2625" />
    <path
       style="fill:none;stroke:#000000;stroke-width:0.264583px;stroke-linecap:butt;stroke-linejoin:miter;stroke-opacity:1"
       d="m 97.374299,149.46362 3.297421,6.81783 -3.956218,5.71693 5.274588,8.21429"
       id="path2629" />
    <path
       style="fill:none;stroke:#000000;stroke-width:0.264583px;stroke-linecap:butt;stroke-linejoin:miter;stroke-opacity:1"
       d="m 103.77938,127.67593 1.23633,0.5727"
       id="path2631" />
    <path
       style="fill:none;stroke:#000000;stroke-width:0.264583px;stroke-linecap:butt;stroke-linejoin:miter;stroke-opacity:1"
       d="m 105.57166,124.35881 0.70199,0.305"
       id="path2633" />
  </g>
</svg>
